<svg width="44" height="44" viewBox="0 0 44 44" fill="none" xmlns="http://www.w3.org/2000/svg">
<path d="M22 34.8333C22.3626 34.8333 22.7171 34.7258 23.0185 34.5244C23.32 34.3229 23.555 34.0366 23.6938 33.7016C23.8325 33.3666 23.8688 32.998 23.7981 32.6423C23.7274 32.2867 23.5528 31.96 23.2964 31.7036C23.04 31.4472 22.7133 31.2726 22.3577 31.2019C22.002 31.1312 21.6334 31.1675 21.2984 31.3062C20.9634 31.445 20.6771 31.68 20.4756 31.9815C20.2742 32.283 20.1667 32.6374 20.1667 33C20.1667 33.4862 20.3598 33.9526 20.7036 34.2964C21.0475 34.6402 21.5138 34.8333 22 34.8333ZM31.1667 34.8333C31.5293 34.8333 31.8837 34.7258 32.1852 34.5244C32.4867 34.3229 32.7217 34.0366 32.8604 33.7016C32.9992 33.3666 33.0355 32.998 32.9648 32.6423C32.894 32.2867 32.7194 31.96 32.463 31.7036C32.2066 31.4472 31.88 31.2726 31.5243 31.2019C31.1687 31.1312 30.8001 31.1675 30.4651 31.3062C30.1301 31.445 29.8438 31.68 29.6423 31.9815C29.4409 32.283 29.3333 32.6374 29.3333 33C29.3333 33.4862 29.5265 33.9526 29.8703 34.2964C30.2141 34.6402 30.6804 34.8333 31.1667 34.8333ZM31.1667 27.5C31.5293 27.5 31.8837 27.3925 32.1852 27.191C32.4867 26.9896 32.7217 26.7033 32.8604 26.3683C32.9992 26.0333 33.0355 25.6646 32.9648 25.309C32.894 24.9534 32.7194 24.6267 32.463 24.3703C32.2066 24.1139 31.88 23.9393 31.5243 23.8686C31.1687 23.7978 30.8001 23.8341 30.4651 23.9729C30.1301 24.1117 29.8438 24.3466 29.6423 24.6481C29.4409 24.9496 29.3333 25.3041 29.3333 25.6667C29.3333 26.1529 29.5265 26.6192 29.8703 26.963C30.2141 27.3069 30.6804 27.5 31.1667 27.5ZM22 27.5C22.3626 27.5 22.7171 27.3925 23.0185 27.191C23.32 26.9896 23.555 26.7033 23.6938 26.3683C23.8325 26.0333 23.8688 25.6646 23.7981 25.309C23.7274 24.9534 23.5528 24.6267 23.2964 24.3703C23.04 24.1139 22.7133 23.9393 22.3577 23.8686C22.002 23.7978 21.6334 23.8341 21.2984 23.9729C20.9634 24.1117 20.6771 24.3466 20.4756 24.6481C20.2742 24.9496 20.1667 25.3041 20.1667 25.6667C20.1667 26.1529 20.3598 26.6192 20.7036 26.963C21.0475 27.3069 21.5138 27.5 22 27.5ZM34.8333 5.50001H33V3.66668C33 3.18045 32.8068 2.71413 32.463 2.37031C32.1192 2.0265 31.6529 1.83334 31.1667 1.83334C30.6804 1.83334 30.2141 2.0265 29.8703 2.37031C29.5265 2.71413 29.3333 3.18045 29.3333 3.66668V5.50001H14.6667V3.66668C14.6667 3.18045 14.4735 2.71413 14.1297 2.37031C13.7859 2.0265 13.3196 1.83334 12.8333 1.83334C12.3471 1.83334 11.8808 2.0265 11.537 2.37031C11.1932 2.71413 11 3.18045 11 3.66668V5.50001H9.16666C7.70797 5.50001 6.30903 6.07947 5.27758 7.11092C4.24613 8.14237 3.66666 9.54132 3.66666 11V36.6667C3.66666 38.1254 4.24613 39.5243 5.27758 40.5558C6.30903 41.5872 7.70797 42.1667 9.16666 42.1667H34.8333C36.292 42.1667 37.691 41.5872 38.7224 40.5558C39.7539 39.5243 40.3333 38.1254 40.3333 36.6667V11C40.3333 9.54132 39.7539 8.14237 38.7224 7.11092C37.691 6.07947 36.292 5.50001 34.8333 5.50001ZM36.6667 36.6667C36.6667 37.1529 36.4735 37.6192 36.1297 37.963C35.7859 38.3069 35.3196 38.5 34.8333 38.5H9.16666C8.68043 38.5 8.21412 38.3069 7.8703 37.963C7.52649 37.6192 7.33333 37.1529 7.33333 36.6667V20.1667H36.6667V36.6667ZM36.6667 16.5H7.33333V11C7.33333 10.5138 7.52649 10.0475 7.8703 9.70365C8.21412 9.35983 8.68043 9.16668 9.16666 9.16668H11V11C11 11.4862 11.1932 11.9526 11.537 12.2964C11.8808 12.6402 12.3471 12.8333 12.8333 12.8333C13.3196 12.8333 13.7859 12.6402 14.1297 12.2964C14.4735 11.9526 14.6667 11.4862 14.6667 11V9.16668H29.3333V11C29.3333 11.4862 29.5265 11.9526 29.8703 12.2964C30.2141 12.6402 30.6804 12.8333 31.1667 12.8333C31.6529 12.8333 32.1192 12.6402 32.463 12.2964C32.8068 11.9526 33 11.4862 33 11V9.16668H34.8333C35.3196 9.16668 35.7859 9.35983 36.1297 9.70365C36.4735 10.0475 36.6667 10.5138 36.6667 11V16.5ZM12.8333 27.5C13.1959 27.5 13.5504 27.3925 13.8519 27.191C14.1534 26.9896 14.3883 26.7033 14.5271 26.3683C14.6659 26.0333 14.7022 25.6646 14.6314 25.309C14.5607 24.9534 14.3861 24.6267 14.1297 24.3703C13.8733 24.1139 13.5466 23.9393 13.191 23.8686C12.8354 23.7978 12.4667 23.8341 12.1317 23.9729C11.7967 24.1117 11.5104 24.3466 11.309 24.6481C11.1075 24.9496 11 25.3041 11 25.6667C11 26.1529 11.1932 26.6192 11.537 26.963C11.8808 27.3069 12.3471 27.5 12.8333 27.5ZM12.8333 34.8333C13.1959 34.8333 13.5504 34.7258 13.8519 34.5244C14.1534 34.3229 14.3883 34.0366 14.5271 33.7016C14.6659 33.3666 14.7022 32.998 14.6314 32.6423C14.5607 32.2867 14.3861 31.96 14.1297 31.7036C13.8733 31.4472 13.5466 31.2726 13.191 31.2019C12.8354 31.1312 12.4667 31.1675 12.1317 31.3062C11.7967 31.445 11.5104 31.68 11.309 31.9815C11.1075 32.283 11 32.6374 11 33C11 33.4862 11.1932 33.9526 11.537 34.2964C11.8808 34.6402 12.3471 34.8333 12.8333 34.8333Z" fill="black"/>
</svg>
