<svg width="350" height="94" viewBox="0 0 350 94" fill="none" xmlns="http://www.w3.org/2000/svg">
<path d="M150.04 30.1274C216.397 -20.1145 346 -18.998 346 -18.998V96H-20C-20 96 -31.8833 65.1145 -9.5 59.5C26.7372 50.4105 109.02 61.1852 150.04 30.1274Z" fill="white" fill-opacity="0.16"/>
<path d="M201 38C259.742 -11.3681 346 -17.998 346 -17.998V95H-8C-8 95 20.6982 79.8864 41.5 74C95 58.8607 165.361 67.9513 201 38Z" fill="white" fill-opacity="0.16"/>
<path d="M252.023 37.1466C308.227 -6.97879 418 -5.99822 418 -5.99822V95H108C108 95 195.819 81.2721 252.023 37.1466Z" fill="white" fill-opacity="0.16"/>
</svg>
