<svg width="64" height="64" viewBox="0 0 64 64" fill="none" xmlns="http://www.w3.org/2000/svg">
    <path
        d="M50.21 59.56H44.93C44.3996 59.56 43.8909 59.3493 43.5158 58.9742C43.1407 58.5991 42.93 58.0904 42.93 57.56C42.93 57.0296 43.1407 56.5209 43.5158 56.1458C43.8909 55.7707 44.3996 55.56 44.93 55.56H48.21V13.56H44.06V18.27C44.06 18.8004 43.8493 19.3091 43.4742 19.6842C43.0991 20.0593 42.5904 20.27 42.06 20.27H21.94C21.4096 20.27 20.9009 20.0593 20.5258 19.6842C20.1507 19.3091 19.94 18.8004 19.94 18.27V13.55H15.79V55.55H35.09C35.6204 55.55 36.1291 55.7607 36.5042 56.1358C36.8793 56.5109 37.09 57.0196 37.09 57.55C37.09 58.0804 36.8793 58.5891 36.5042 58.9642C36.1291 59.3393 35.6204 59.55 35.09 59.55H13.79C13.2596 59.55 12.7509 59.3393 12.3758 58.9642C12.0007 58.5891 11.79 58.0804 11.79 57.55V11.55C11.79 11.0196 12.0007 10.5109 12.3758 10.1358C12.7509 9.76072 13.2596 9.55 13.79 9.55H21.94C22.4704 9.55 22.9791 9.76072 23.3542 10.1358C23.7293 10.5109 23.94 11.0196 23.94 11.55V16.26H40.06V11.55C40.06 11.0196 40.2707 10.5109 40.6458 10.1358C41.0209 9.76072 41.5296 9.55 42.06 9.55H50.21C50.7404 9.55 51.2491 9.76072 51.6242 10.1358C51.9993 10.5109 52.21 11.0196 52.21 11.55V57.55C52.2113 57.8135 52.1606 58.0746 52.0606 58.3184C51.9607 58.5622 51.8136 58.7839 51.6278 58.9707C51.4419 59.1575 51.221 59.3057 50.9777 59.4068C50.7344 59.5079 50.4735 59.56 50.21 59.56Z"
        fill="currentColor" />
    <path
        d="M42.06 20.26H21.94C21.4096 20.26 20.9009 20.0493 20.5258 19.6742C20.1507 19.2991 19.94 18.7904 19.94 18.26V6.44C19.94 5.90957 20.1507 5.40086 20.5258 5.02579C20.9009 4.65072 21.4096 4.44 21.94 4.44H42.06C42.5904 4.44 43.0991 4.65072 43.4742 5.02579C43.8493 5.40086 44.06 5.90957 44.06 6.44V18.26C44.06 18.7904 43.8493 19.2991 43.4742 19.6742C43.0991 20.0493 42.5904 20.26 42.06 20.26ZM23.94 16.26H40.06V8.44H23.94V16.26ZM24.77 32.36H21.77C21.2396 32.36 20.7309 32.1493 20.3558 31.7742C19.9807 31.3991 19.77 30.8904 19.77 30.36C19.77 29.8296 19.9807 29.3209 20.3558 28.9458C20.7309 28.5707 21.2396 28.36 21.77 28.36H24.77C25.3004 28.36 25.8091 28.5707 26.1842 28.9458C26.5593 29.3209 26.77 29.8296 26.77 30.36C26.77 30.8904 26.5593 31.3991 26.1842 31.7742C25.8091 32.1493 25.3004 32.36 24.77 32.36ZM42.23 32.14H30.45C29.9196 32.14 29.4109 31.9293 29.0358 31.5542C28.6607 31.1791 28.45 30.6704 28.45 30.14C28.45 29.6096 28.6607 29.1009 29.0358 28.7258C29.4109 28.3507 29.9196 28.14 30.45 28.14H42.23C42.7604 28.14 43.2691 28.3507 43.6442 28.7258C44.0193 29.1009 44.23 29.6096 44.23 30.14C44.23 30.6704 44.0193 31.1791 43.6442 31.5542C43.2691 31.9293 42.7604 32.14 42.23 32.14ZM24.77 43.93H21.77C21.2396 43.93 20.7309 43.7193 20.3558 43.3442C19.9807 42.9691 19.77 42.4604 19.77 41.93C19.77 41.3996 19.9807 40.8909 20.3558 40.5158C20.7309 40.1407 21.2396 39.93 21.77 39.93H24.77C25.3004 39.93 25.8091 40.1407 26.1842 40.5158C26.5593 40.8909 26.77 41.3996 26.77 41.93C26.77 42.4604 26.5593 42.9691 26.1842 43.3442C25.8091 43.7193 25.3004 43.93 24.77 43.93ZM42.23 43.71H30.45C29.9196 43.71 29.4109 43.4993 29.0358 43.1242C28.6607 42.7491 28.45 42.2404 28.45 41.71C28.45 41.1796 28.6607 40.6709 29.0358 40.2958C29.4109 39.9207 29.9196 39.71 30.45 39.71H42.23C42.7604 39.71 43.2691 39.9207 43.6442 40.2958C44.0193 40.6709 44.23 41.1796 44.23 41.71C44.23 42.2404 44.0193 42.7491 43.6442 43.1242C43.2691 43.4993 42.7604 43.71 42.23 43.71Z"
        fill="currentColor" />
</svg>