<svg width="64" height="64" viewBox="0 0 64 64" fill="none" xmlns="http://www.w3.org/2000/svg">
    <path
        d="M48.41 58.57H15.59C15.0596 58.57 14.5509 58.3593 14.1758 57.9842C13.8007 57.6091 13.59 57.1004 13.59 56.57V30.51H5.73C5.32768 30.4978 4.93838 30.3646 4.61301 30.1276C4.28765 29.8907 4.04134 29.5611 3.90631 29.1819C3.77127 28.8027 3.75379 28.3916 3.85614 28.0023C3.9585 27.6131 4.17592 27.2637 4.48 27L30.75 5.87C31.1047 5.58599 31.5456 5.43125 32 5.43125C32.4544 5.43125 32.8953 5.58599 33.25 5.87L59.52 27C59.843 27.2591 60.0776 27.6121 60.1914 28.0102C60.3052 28.4083 60.2927 28.8319 60.1555 29.2226C60.0183 29.6133 59.7633 29.9517 59.4255 30.1913C59.0878 30.4309 58.6841 30.5597 58.27 30.56H50.41V39.93C50.41 40.4604 50.1993 40.9691 49.8242 41.3442C49.4491 41.7193 48.9404 41.93 48.41 41.93C47.8796 41.93 47.3709 41.7193 46.9958 41.3442C46.6207 40.9691 46.41 40.4604 46.41 39.93V28.51C46.41 27.9796 46.6207 27.4709 46.9958 27.0958C47.3709 26.7207 47.8796 26.51 48.41 26.51H52.58L32 10L11.42 26.51H15.59C16.1204 26.51 16.6291 26.7207 17.0042 27.0958C17.3793 27.4709 17.59 27.9796 17.59 28.51V54.57H46.41V50.76C46.41 50.2296 46.6207 49.7209 46.9958 49.3458C47.3709 48.9707 47.8796 48.76 48.41 48.76C48.9404 48.76 49.4491 48.9707 49.8242 49.3458C50.1993 49.7209 50.41 50.2296 50.41 50.76V56.57C50.41 57.1004 50.1993 57.6091 49.8242 57.9842C49.4491 58.3593 48.9404 58.57 48.41 58.57Z"
        fill="currentColor" />
    <path
        d="M39.25 58.57H24.75C24.2196 58.57 23.7109 58.3593 23.3358 57.9842C22.9607 57.6091 22.75 57.1004 22.75 56.57V40.67C22.75 40.1396 22.9607 39.6309 23.3358 39.2558C23.7109 38.8807 24.2196 38.67 24.75 38.67H39.25C39.7804 38.67 40.2891 38.8807 40.6642 39.2558C41.0393 39.6309 41.25 40.1396 41.25 40.67V56.57C41.25 57.1004 41.0393 57.6091 40.6642 57.9842C40.2891 58.3593 39.7804 58.57 39.25 58.57ZM26.75 54.57H37.25V42.67H26.75V54.57Z"
        fill="currentColor" />
</svg>