<svg width="24" height="24" viewBox="0 0 24 24" fill="none" xmlns="http://www.w3.org/2000/svg">
    <g clip-path="url(#clip0_4_45)">
        <path
            d="M19.5 24H4.5C3.30653 24 2.16193 23.5259 1.31802 22.682C0.474106 21.8381 0 20.6935 0 19.5L0 16.5H3V19.5C3 19.8978 3.15804 20.2794 3.43934 20.5607C3.72064 20.842 4.10218 21 4.5 21H19.5C20.3295 21 21 20.3295 21 19.5V4.5C21 4.10218 20.842 3.72064 20.5607 3.43934C20.2794 3.15804 19.8978 3 19.5 3H4.5C3.672 3 3 3.672 3 4.5V7.5H0V4.5C0 3.30653 0.474106 2.16193 1.31802 1.31802C2.16193 0.474106 3.30653 0 4.5 0L19.5 0C20.6935 0 21.8381 0.474106 22.682 1.31802C23.5259 2.16193 24 3.30653 24 4.5V19.5C24 20.6935 23.5259 21.8381 22.682 22.682C21.8381 23.5259 20.6935 24 19.5 24ZM6.9255 7.6125C7.19972 7.49928 7.50132 7.46977 7.79228 7.52769C8.08325 7.58562 8.35055 7.72839 8.5605 7.938L11.5605 10.938C11.853 11.2305 12 11.6145 12 11.9985C12 12.3825 11.853 12.7665 11.5605 13.059L8.5605 16.059C8.35037 16.2683 8.08308 16.4109 7.79219 16.4688C7.50129 16.5267 7.19978 16.4974 6.9255 16.3845C6.65155 16.2708 6.41744 16.0784 6.25272 15.8317C6.088 15.5851 6.00006 15.2951 6 14.9985V13.5H1.5C1.10218 13.5 0.720644 13.342 0.43934 13.0607C0.158035 12.7794 0 12.3978 0 12C0 11.6022 0.158035 11.2206 0.43934 10.9393C0.720644 10.658 1.10218 10.5 1.5 10.5H6V8.9985C6 8.3925 6.366 7.8435 6.9255 7.6125Z"
            fill="currentColor" />
    </g>
    <defs>
        <clipPath id="clip0_4_45">
            <rect width="24" height="24" fill="white" />
        </clipPath>
    </defs>
</svg>