<svg width="64" height="64" viewBox="0 0 64 64" fill="none" xmlns="http://www.w3.org/2000/svg">
    <path
        d="M45.67 57.68H18.33C17.9793 57.6796 17.6348 57.5871 17.3312 57.4115C17.0275 57.236 16.7754 56.9837 16.6 56.68L2.93 33C2.75446 32.696 2.66205 32.3511 2.66205 32C2.66205 31.6489 2.75446 31.304 2.93 31L16.6 7.32C16.7754 7.01626 17.0275 6.76398 17.3312 6.58846C17.6348 6.41294 17.9793 6.32036 18.33 6.32H45.67C46.0207 6.32036 46.3652 6.41294 46.6688 6.58846C46.9725 6.76398 47.2246 7.01626 47.4 7.32L54.86 20.24C54.9913 20.4678 55.0765 20.7193 55.1106 20.9801C55.1447 21.2408 55.1272 21.5058 55.0589 21.7597C54.9907 22.0137 54.8731 22.2517 54.7128 22.4602C54.5526 22.6688 54.3528 22.8437 54.125 22.975C53.8972 23.1063 53.6457 23.1915 53.3849 23.2256C53.1242 23.2597 52.8592 23.2422 52.6053 23.1739C52.3513 23.1057 52.1133 22.9881 51.9047 22.8278C51.6962 22.6676 51.5213 22.4678 51.39 22.24L44.52 10.32H19.52L7 32L19.48 53.68H44.48L57 32L56 30.29C55.7348 29.8299 55.6632 29.2832 55.8011 28.7703C55.9389 28.2574 56.2748 27.8202 56.735 27.555C57.1951 27.2898 57.7418 27.2182 58.2547 27.3561C58.7676 27.4939 59.2048 27.8299 59.47 28.29L61.07 31C61.2455 31.304 61.3379 31.6489 61.3379 32C61.3379 32.3511 61.2455 32.696 61.07 33L47.4 56.68C47.2246 56.9837 46.9725 57.236 46.6688 57.4115C46.3652 57.5871 46.0207 57.6796 45.67 57.68Z"
        fill="currentColor" />
    <path
        d="M32 25.57C30.8839 25.5699 29.7931 25.2382 28.866 24.6168C27.9389 23.9955 27.2174 23.1127 26.7931 22.0804C26.3688 21.0482 26.2608 19.9131 26.483 18.8194C26.7051 17.7257 27.2473 16.7226 28.0407 15.9377C28.8341 15.1528 29.8428 14.6214 30.9389 14.411C32.0349 14.2006 33.1688 14.3206 34.1964 14.756C35.224 15.1913 36.0991 15.9223 36.7105 16.856C37.3218 17.7897 37.6419 18.884 37.63 20C37.6168 21.4836 37.0175 22.9017 35.9628 23.9452C34.9081 24.9886 33.4836 25.5727 32 25.57ZM32 18.32C31.6798 18.3202 31.3667 18.4146 31.0998 18.5916C30.833 18.7686 30.6242 19.0203 30.4994 19.3152C30.3747 19.6102 30.3397 19.9353 30.3986 20.2501C30.4576 20.5648 30.6079 20.8552 30.8309 21.085C31.0539 21.3149 31.3396 21.4739 31.6525 21.5424C31.9653 21.6108 32.2913 21.5855 32.5899 21.4698C32.8885 21.3541 33.1463 21.1529 33.3313 20.8916C33.5163 20.6302 33.6202 20.3201 33.63 20C33.6381 19.7814 33.6019 19.5635 33.5235 19.3593C33.4451 19.1551 33.3261 18.9689 33.1738 18.8119C33.0215 18.6549 32.839 18.5304 32.6372 18.4458C32.4355 18.3613 32.2187 18.3185 32 18.32Z"
        fill="currentColor" />
    <path
        d="M32 37.63C30.8865 37.63 29.798 37.2998 28.8721 36.6812C27.9463 36.0625 27.2247 35.1833 26.7986 34.1545C26.3724 33.1258 26.2609 31.9938 26.4782 30.9016C26.6954 29.8095 27.2316 28.8064 28.019 28.019C28.8064 27.2316 29.8095 26.6954 30.9016 26.4782C31.9938 26.2609 33.1258 26.3724 34.1545 26.7986C35.1833 27.2247 36.0625 27.9463 36.6812 28.8721C37.2998 29.798 37.63 30.8865 37.63 32C37.63 33.4932 37.0368 34.9252 35.981 35.981C34.9252 37.0368 33.4932 37.63 32 37.63ZM32 30.38C31.591 30.4121 31.2092 30.5972 30.9307 30.8984C30.6522 31.1996 30.4976 31.5948 30.4976 32.005C30.4976 32.4152 30.6522 32.8104 30.9307 33.1116C31.2092 33.4128 31.591 33.5979 32 33.63C32.2241 33.6476 32.4494 33.6186 32.6618 33.545C32.8742 33.4713 33.0691 33.3545 33.2341 33.2018C33.3992 33.0492 33.5309 32.8641 33.621 32.6581C33.7111 32.4522 33.7576 32.2298 33.7576 32.005C33.7576 31.7802 33.7111 31.5578 33.621 31.3519C33.5309 31.1459 33.3992 30.9608 33.2341 30.8082C33.0691 30.6555 32.8742 30.5387 32.6618 30.465C32.4494 30.3914 32.2241 30.3624 32 30.38Z"
        fill="currentColor" />
    <path
        d="M32 49.68C30.8865 49.68 29.798 49.3498 28.8721 48.7312C27.9463 48.1125 27.2247 47.2333 26.7986 46.2045C26.3724 45.1758 26.2609 44.0438 26.4782 42.9516C26.6954 41.8595 27.2316 40.8564 28.019 40.069C28.8064 39.2816 29.8095 38.7454 30.9016 38.5282C31.9938 38.3109 33.1258 38.4224 34.1545 38.8486C35.1833 39.2747 36.0625 39.9963 36.6812 40.9221C37.2998 41.848 37.63 42.9365 37.63 44.05C37.63 45.5432 37.0368 46.9752 35.981 48.031C34.9252 49.0868 33.4932 49.68 32 49.68ZM32 42.43C31.591 42.4621 31.2092 42.6472 30.9307 42.9484C30.6522 43.2496 30.4976 43.6448 30.4976 44.055C30.4976 44.4652 30.6522 44.8604 30.9307 45.1616C31.2092 45.4628 31.591 45.6479 32 45.68C32.2241 45.6976 32.4494 45.6686 32.6618 45.595C32.8742 45.5213 33.0691 45.4045 33.2341 45.2518C33.3992 45.0992 33.5309 44.9141 33.621 44.7081C33.7111 44.5022 33.7576 44.2798 33.7576 44.055C33.7576 43.8302 33.7111 43.6078 33.621 43.4019C33.5309 43.1959 33.3992 43.0108 33.2341 42.8582C33.0691 42.7055 32.8742 42.5887 32.6618 42.515C32.4494 42.4414 32.2241 42.4124 32 42.43Z"
        fill="currentColor" />
</svg>