<svg width="24" height="24" viewBox="0 0 24 24" fill="none" xmlns="http://www.w3.org/2000/svg">
    <g clip-path="url(#clip0_4_61)">
        <path
            d="M4.5 24H19.5C20.6935 24 21.8381 23.5259 22.682 22.682C23.5259 21.8381 24 20.6935 24 19.5V16.5H21V19.5C21 19.8978 20.842 20.2794 20.5607 20.5607C20.2794 20.842 19.8978 21 19.5 21H4.5C3.6705 21 3 20.3295 3 19.5V4.5C3 4.10218 3.15804 3.72064 3.43934 3.43934C3.72065 3.15804 4.10218 3 4.5 3H19.5C20.328 3 21 3.672 21 4.5V7.5H24V4.5C24 3.30653 23.5259 2.16193 22.682 1.31802C21.8381 0.474106 20.6935 0 19.5 0L4.5 0C3.30653 0 2.16193 0.474106 1.31802 1.31802C0.474106 2.16193 0 3.30653 0 4.5V19.5C0 20.6935 0.474106 21.8381 1.31802 22.682C2.16193 23.5259 3.30653 24 4.5 24ZM17.0745 7.6125C16.8003 7.49928 16.4987 7.46977 16.2077 7.52769C15.9168 7.58562 15.6494 7.72839 15.4395 7.938L12.4395 10.938C12.147 11.2305 12 11.6145 12 11.9985C12 12.3825 12.147 12.7665 12.4395 13.059L15.4395 16.059C15.6496 16.2683 15.9169 16.4109 16.2078 16.4688C16.4987 16.5267 16.8002 16.4974 17.0745 16.3845C17.3485 16.2708 17.5826 16.0784 17.7473 15.8317C17.912 15.5851 17.9999 15.2951 18 14.9985V13.5H22.5C22.8978 13.5 23.2794 13.342 23.5607 13.0607C23.842 12.7794 24 12.3978 24 12C24 11.6022 23.842 11.2206 23.5607 10.9393C23.2794 10.658 22.8978 10.5 22.5 10.5H18V8.9985C18 8.3925 17.634 7.8435 17.0745 7.6125Z"
            fill="currentColor" />
    </g>
    <defs>
        <clipPath id="clip0_4_61">
            <rect width="24" height="24" fill="white" transform="matrix(-1 0 0 1 24 0)" />
        </clipPath>
    </defs>
</svg>