<svg width="18" height="18" viewBox="0 0 18 18" fill="none" xmlns="http://www.w3.org/2000/svg">
    <g clip-path="url(#clip0_2_22)">
        <path
            d="M9 1.5C7.41904 1.49992 5.90194 2.12382 4.77843 3.23609C3.65492 4.34837 3.01581 5.85912 3 7.44C3 11.55 8.2875 16.125 8.5125 16.32C8.64835 16.4362 8.82124 16.5 9 16.5C9.17876 16.5 9.35165 16.4362 9.4875 16.32C9.75 16.125 15 11.55 15 7.44C14.9842 5.85912 14.3451 4.34837 13.2216 3.23609C12.0981 2.12382 10.581 1.49992 9 1.5ZM9 14.7375C7.7475 13.545 4.5 10.2375 4.5 7.44C4.5 6.24653 4.97411 5.10193 5.81802 4.25802C6.66193 3.41411 7.80653 2.94 9 2.94C10.1935 2.94 11.3381 3.41411 12.182 4.25802C13.0259 5.10193 13.5 6.24653 13.5 7.44C13.5 10.215 10.2525 13.545 9 14.7375Z"
            fill="currentColor" />
        <path
            d="M9 4.5C8.48083 4.5 7.97331 4.65395 7.54163 4.94239C7.10995 5.23083 6.7735 5.6408 6.57482 6.12046C6.37614 6.60011 6.32415 7.12791 6.42544 7.63711C6.52673 8.14631 6.77673 8.61404 7.14385 8.98116C7.51096 9.34827 7.97869 9.59828 8.48789 9.69956C8.99709 9.80085 9.52489 9.74886 10.0045 9.55018C10.4842 9.3515 10.8942 9.01505 11.1826 8.58337C11.471 8.15169 11.625 7.64418 11.625 7.125C11.625 6.42881 11.3484 5.76113 10.8562 5.26884C10.3639 4.77656 9.69619 4.5 9 4.5ZM9 8.25C8.7775 8.25 8.55999 8.18402 8.37499 8.0604C8.18998 7.93679 8.04579 7.76109 7.96064 7.55552C7.87549 7.34995 7.85321 7.12375 7.89662 6.90552C7.94003 6.68729 8.04717 6.48684 8.20451 6.3295C8.36184 6.17217 8.5623 6.06502 8.78052 6.02162C8.99875 5.97821 9.22495 6.00049 9.43052 6.08564C9.63609 6.17078 9.81179 6.31498 9.93541 6.49998C10.059 6.68499 10.125 6.9025 10.125 7.125C10.125 7.42337 10.0065 7.70952 9.7955 7.9205C9.58452 8.13147 9.29837 8.25 9 8.25Z"
            fill="currentColor" />
    </g>
    <defs>
        <clipPath id="clip0_2_22">
            <rect width="18" height="18" fill="white" />
        </clipPath>
    </defs>
</svg>